<?xml version="1.0" encoding="UTF-8"?>
<svg width="356px" height="104px" viewBox="0 0 356 104" version="1.1" xmlns="http://www.w3.org/2000/svg" xmlns:xlink="http://www.w3.org/1999/xlink">
    <title>8E52B53D-829C-4EE3-AAFA-3C6A323CCFBD</title>
    <defs>
        <rect id="path-1" x="0" y="0" width="356" height="104"></rect>
    </defs>
    <g id="Pages" stroke="none" stroke-width="1" fill="none" fill-rule="evenodd">
        <g id="Landing-Page" transform="translate(-542.000000, -40.000000)">
            <g id="Logo" transform="translate(542.000000, 40.000000)">
                <mask id="mask-2" fill="white">
                    <use xlink:href="#path-1"></use>
                </mask>
                <use id="Mask" fill-opacity="0" fill="#FFFFFF" xlink:href="#path-1"></use>
                <g id="LOFI_primary_red-01" mask="url(#mask-2)" fill="#D8505C" fill-rule="nonzero">
                    <g transform="translate(69.000000, 12.000000)" id="Shape">
                        <path d="M209.306293,30.9033859 C209.50745,30.8138104 209.708606,30.724235 209.932113,30.6122657 C210.15562,31.0825367 210.379127,31.50802 210.580283,31.9335034 C210.692037,32.1798358 210.80379,32.4037744 210.937895,32.6501068 C211.049648,32.8740454 211.161402,33.1427717 211.474311,32.9860147 C211.787221,32.8292577 211.608416,32.5605314 211.519013,32.3365928 C211.407259,32.1126542 211.295506,31.8887156 211.183752,31.664777 C210.960245,31.2168999 210.759089,30.7914166 210.535582,30.3211455 C210.759089,30.2091762 210.937895,30.0972069 211.1167,30.0076315 C211.273155,29.9180561 211.42961,29.8060868 211.340207,29.604542 C211.250804,29.3582096 211.027297,29.3806035 210.848492,29.4701789 C210.222672,29.7612991 209.619203,30.0748131 209.015734,30.3883271 C208.836929,30.4779025 208.725175,30.6346595 208.836929,30.8138104 C208.948682,30.9705674 209.127488,30.9705674 209.306293,30.9033859 Z M97.865689,36.7929707 C97.8880397,38.5396917 97.9103904,39.9281109 97.9774425,40.0848679 L99.9666551,40.0848679 L99.9666551,35.9643979 C100.793631,35.8076409 100.793631,35.8076409 101.061839,36.4570628 C101.508854,37.5543619 101.955868,38.651661 102.402882,39.7265662 C102.469934,39.9057171 102.514635,40.1072618 102.782844,40.1072618 C103.408663,40.1072618 104.034483,40.1072618 104.772056,40.1072618 C104.101535,38.5172978 103.475715,37.0169093 102.827545,35.471733 C103.788625,35.0462497 104.25799,34.2848585 104.347393,33.2771349 C104.526198,31.4408385 103.766275,29.9180561 101.799413,29.6941175 C100.547773,29.5597543 99.2737833,29.6493298 97.9997932,29.6269359 C97.9774425,29.6269359 97.9327411,29.6717236 97.9103904,29.6717236 C97.8433383,29.9852376 97.8209876,32.470956 97.8433383,34.9566743 C97.8433383,35.6060962 97.865689,36.2107304 97.865689,36.7929707 Z M99.9890058,31.351263 C100.43602,31.351263 100.860683,31.3064753 101.285347,31.351263 C101.911166,31.4408385 102.246427,31.8439279 102.291128,32.470956 C102.313479,32.6501068 102.313479,32.8292577 102.291128,33.0084086 C102.246427,33.6578305 101.888815,34.0609199 101.240645,34.1504954 C100.838332,34.1952831 100.43602,34.1504954 99.9890058,34.1504954 L99.9890058,31.351263 Z M25.5164639,34.9118866 C24.5106823,34.3296462 23.5049007,33.7697998 22.4991191,33.1651656 C22.1638585,32.9636209 21.8732994,32.9636209 21.5603895,33.1875594 C21.4262853,33.2771349 21.2921811,33.3667103 21.1804276,33.4562857 C15.3468942,37.6663312 9.53571142,41.8763766 3.70217798,46.0640282 C2.60699354,46.8478133 1.5341598,47.6315983 0.438975366,48.4153834 C-0.16449361,48.8632605 -0.142142907,49.3335316 0.483676772,49.6918333 C1.42240629,50.2292859 2.36113581,50.7443447 3.27751463,51.3041911 C3.76923009,51.5953113 4.17154274,51.5505236 4.61855679,51.2146157 C6.58541864,49.7590149 8.5746312,48.3482018 10.5638437,46.892601 C10.8544029,46.6686624 11.0779099,46.6462685 11.4131705,46.8254194 C14.005852,48.3482018 16.6208842,49.8485903 19.2359164,51.3489789 C19.4817742,51.483342 19.571177,51.6624929 19.5264756,51.953613 C19.2135657,54.4841191 18.9453573,57.037019 18.6324475,59.567525 C18.5877461,59.9482206 18.6994996,60.2169469 19.0347601,60.4184916 C20.0628924,61.0231258 21.1133755,61.62776 22.1415078,62.2100003 C22.7896782,62.5683021 23.1919908,62.3667573 23.2813937,61.62776 C23.4378486,60.2169469 23.5719528,58.8285277 23.7284077,57.4177146 C23.8848626,55.8949322 24.0413176,54.3721498 24.2201232,52.8493674 C24.3765781,51.326585 24.533033,49.8038026 24.6894879,48.2810202 C24.8459429,46.7134501 25.0247485,45.1234861 25.1812034,43.555916 C25.3376583,42.0331336 25.4941132,40.5103512 25.6729189,38.9875688 C25.7846724,37.8902698 25.8964259,36.8153646 26.0081794,35.7180655 C26.0305301,35.314976 25.8293738,35.0910374 25.5164639,34.9118866 Z M20.0628924,46.3775422 C18.4312911,45.459394 16.8890926,44.5636397 15.2574913,43.6007037 C17.090249,42.2794661 18.8559545,41.0030161 20.62166,39.7265662 C20.6663614,39.74896 20.6887121,39.7713539 20.7334135,39.7937478 C20.5099065,41.9659521 20.2863995,44.1157625 20.0628924,46.3775422 Z M212.927107,31.7767463 C213.01651,31.9558972 213.150614,32.1350481 213.374121,32.0454726 C213.619979,31.9335034 213.597628,31.7095648 213.508225,31.50802 C213.463524,31.3736569 213.396472,31.2616876 213.32942,31.1273244 C213.172965,30.7914166 212.994159,30.4331148 212.837704,30.0972069 C213.172965,30.1867824 213.441173,30.3435394 213.709382,30.4779025 C214.156396,30.724235 214.335201,30.6346595 214.424604,30.1419947 C214.469306,29.8284806 214.514007,29.5373605 214.581059,29.2238464 C214.625761,29.2238464 214.670462,29.2238464 214.692813,29.2014526 C214.782215,29.3806035 214.849268,29.5373605 214.93867,29.7165113 C215.095125,30.0300254 215.25158,30.3435394 215.408035,30.6570534 C215.497438,30.8138104 215.631542,30.9257797 215.832699,30.8362043 C216.056206,30.724235 216.056206,30.5450841 215.966803,30.3435394 C215.586841,29.5597543 215.206879,28.7535754 214.804566,27.9697904 C214.737514,27.8578211 214.514007,27.7234579 214.402254,27.7458518 C214.268149,27.7682456 214.111694,27.9473965 214.089344,28.1041535 C213.999941,28.4400614 213.999941,28.7983631 213.955239,29.1566649 C213.932889,29.3806035 213.888187,29.5821482 213.821135,29.8508745 C213.284718,29.5373605 212.860055,29.2462403 212.39069,28.9999079 C212.256586,28.9327263 212.010728,28.9103324 211.854273,28.9999079 C211.653117,29.1118772 211.697818,29.3358157 211.787221,29.5149666 C212.189534,30.2539639 212.569496,31.0153551 212.927107,31.7767463 Z M43.1735192,12.652391 C44.7827698,17.2879198 46.3920204,21.9010546 48.001271,26.5365834 C48.2918301,27.4099439 48.60474,28.2609105 48.9176498,29.134271 C49.1188061,29.6493298 49.3870146,29.8508745 49.9681328,29.8508745 C50.102237,29.8060868 50.3480948,29.7389052 50.5939525,29.6493298 C53.9689086,28.4848491 57.3438648,27.2979746 60.7188209,26.1334939 C61.4563941,25.8871615 62.1939673,25.6408291 62.9091898,25.3721027 C63.490308,25.1481642 63.7361658,24.700287 63.5573601,24.1628344 C63.2891517,23.3342616 63.0209433,22.5280827 62.7080334,21.7219038 C62.5068771,21.1620573 62.0598631,20.9605126 61.4787448,21.1172696 C61.2999392,21.1620573 61.1434842,21.2292389 60.9870293,21.2964205 C58.1708408,22.2817502 55.3323015,23.26708 52.516113,24.2524098 C52.0243975,24.4315607 52.0020468,24.4091668 51.8455919,23.9165019 C50.8398102,21.0276942 49.8340286,18.1164925 48.828247,15.2276847 C48.3141808,13.7496901 47.8001147,12.2716954 47.2860485,10.7937007 C47.0625415,10.1666727 46.6602288,9.89794637 46.0791105,10.0770972 C45.2297838,10.3458235 44.3804571,10.6369437 43.5311304,10.9504577 C43.0617657,11.1296086 42.8606093,11.5998796 42.9947135,12.0701507 C43.0170643,12.2493015 43.1064671,12.4508463 43.1735192,12.652391 Z M94.6695385,31.5752016 C94.4236808,30.5002964 93.6414062,29.9404499 92.6356245,29.7612991 C91.9427527,29.6269359 91.2051795,29.6493298 90.4899571,29.6269359 C89.8864881,29.604542 89.2606684,29.6269359 88.6348487,29.6269359 C88.4783938,30.4555087 88.5454459,39.7265662 88.7019008,40.1520495 C89.662981,40.1520495 90.646412,40.1520495 91.6298429,40.1520495 C91.8980513,40.1520495 92.1662598,40.1520495 92.4121175,40.1072618 C92.747378,40.0400802 93.0602879,39.9505048 93.3731977,39.8385355 C95.4741638,39.0547504 95.4965145,35.7852471 93.9990174,34.8670988 C93.8649132,34.7775234 93.730809,34.6431603 93.5967047,34.531191 C93.6861076,34.4416155 93.7531597,34.374434 93.8202118,34.3296462 C94.6918892,33.5906489 94.9153962,32.6501068 94.6695385,31.5752016 Z M90.6017106,31.3736569 C91.0040232,31.3736569 91.3839852,31.3288692 91.7415964,31.3736569 C92.300364,31.4632323 92.6356245,31.8439279 92.6803259,32.3589867 C92.7250273,32.941227 92.5015203,33.3667103 91.9874541,33.5906489 C91.5627908,33.7921936 91.1157767,33.7697998 90.6240613,33.6802243 L90.6240613,31.3736569 L90.6017106,31.3736569 Z M92.7026766,37.7783005 C92.3897668,38.3605408 91.696895,38.5396917 90.5793599,38.3605408 C90.5346585,37.4423926 90.5570092,36.5018505 90.5793599,35.4941269 C91.4063359,35.471733 92.1662598,35.3821576 92.6579752,36.0987611 C93.0379372,36.6138198 93.0155865,37.2408479 92.7026766,37.7783005 Z M130.274208,40.1296556 C132.039914,40.0848679 133.224501,39.0547504 133.336254,37.2632417 C133.448008,35.6732778 133.425657,34.0609199 133.336254,32.470956 C133.246852,30.9257797 132.330473,29.9180561 130.810625,29.7389052 C129.558986,29.5821482 128.284996,29.6269359 127.011005,29.604542 C126.854551,30.3211455 126.899252,39.7265662 127.033356,40.1520495 C128.10619,40.1296556 129.201374,40.1520495 130.274208,40.1296556 Z M129.044919,31.50802 C129.558986,31.3736569 130.02835,31.3960507 130.497715,31.5975955 C131.078833,31.8439279 131.30234,32.3589867 131.324691,32.9188331 C131.369393,34.2176769 131.391743,35.5389146 131.324691,36.8377584 C131.27999,37.8454821 130.676521,38.3157531 129.69309,38.3157531 C129.491933,38.3157531 129.313128,38.3157531 129.044919,38.3157531 L129.044919,31.50802 L129.044919,31.50802 Z M112.125437,29.9852376 C112.058385,29.6941175 111.924281,29.6269359 111.633722,29.6269359 C111.097305,29.6493298 110.538537,29.6269359 110.002121,29.6269359 C109.398652,29.6269359 109.398652,29.6269359 109.242197,30.2315701 C108.549325,33.0308024 107.856453,35.8524286 107.163581,38.651661 C107.051828,39.121932 106.940074,39.5698092 106.80597,40.1296556 C107.387088,40.1296556 107.878804,40.1072618 108.370519,40.1296556 C108.70578,40.1520495 108.839884,39.9952925 108.906936,39.6817785 C108.996339,39.2562952 109.130443,38.8308118 109.219846,38.4053285 C109.286898,38.0470268 109.465704,37.9574513 109.800964,37.9574513 C110.404433,37.9798452 111.007902,37.9574513 111.589021,37.9574513 C112.058385,37.9574513 112.058385,37.9798452 112.170139,38.4501162 C112.281892,38.8979934 112.371295,39.3458706 112.483049,39.7937478 C112.52775,39.9057171 112.661854,40.0848679 112.773608,40.1072618 C113.332375,40.1296556 113.891143,40.1296556 114.472261,40.1296556 C114.44991,39.9281109 114.44991,39.8161416 114.42756,39.7041723 C113.689987,36.4570628 112.907712,33.2099533 112.125437,29.9852376 Z M109.756263,36.0539734 C110.069173,34.7327357 110.359732,33.4786796 110.62794,32.2022297 C110.650291,32.2022297 110.694992,32.2022297 110.717343,32.2022297 C111.007902,33.4562857 111.298461,34.7327357 111.589021,36.0539734 L109.756263,36.0539734 Z M162.258064,68.4802808 C161.18523,63.5760257 160.112396,58.6717707 159.017212,53.7675156 C158.749003,52.5134595 158.458444,51.2594034 158.190236,50.0053473 C158.078482,49.5350763 157.877326,49.3559254 157.452663,49.3335316 C157.385611,49.3559254 157.296208,49.3783193 157.184454,49.4007132 C156.223374,49.6022579 155.262294,49.8261965 154.301214,50.0501351 C153.56364,50.2068921 153.429536,50.4308307 153.608342,51.169828 C154.122408,53.5659709 154.658825,55.9621138 155.195242,58.3582566 C155.955166,61.8293047 156.71509,65.3227467 157.475013,68.7937948 C157.854975,70.5629096 158.257288,72.3320245 158.63725,74.1011393 C158.793705,74.7953489 159.039563,74.9521059 159.732434,74.7953489 C160.693515,74.5938042 161.654595,74.3698656 162.615675,74.145927 C163.286196,73.98917 163.4203,73.7652314 163.286196,73.0934157 C162.928585,71.5258456 162.593324,70.0030632 162.258064,68.4802808 Z M147.730107,52.3119148 C147.663055,51.8416438 147.394846,51.640099 146.925482,51.6848867 C146.344363,51.7520683 145.763245,51.8192499 145.204478,51.8864315 C143.259966,52.1327639 141.337806,52.3567025 139.393295,52.6030349 C137.806395,52.8045797 136.219495,53.0061244 134.632595,53.1852753 C133.023345,53.38682 131.414094,53.5659709 129.804843,53.7675156 C128.866114,53.8794849 127.927384,53.9914542 126.966304,54.1034235 C126.496939,54.1706051 126.251082,54.4617252 126.318134,54.8872085 C126.452238,55.9845076 126.563991,57.0818067 126.720446,58.2014996 C126.787498,58.6493768 127.078058,58.8733154 127.547422,58.8061338 C129.938948,58.5150136 132.330473,58.2238935 134.721998,57.9327733 C134.856102,57.9103795 134.990206,57.9327733 135.169012,57.9327733 C135.280766,58.78374 135.392519,59.5899189 135.481922,60.3737039 C135.705429,62.2547881 135.928936,64.158266 136.152443,66.0393502 C136.420651,68.2563422 136.68886,70.4733342 136.957068,72.7127201 C137.158225,74.2802902 137.33703,75.8702542 137.538187,77.4378243 C137.627589,78.1544277 137.806395,78.2887909 138.521617,78.2216093 C139.527399,78.1320339 140.51083,77.9976707 141.516612,77.8633076 C142.142431,77.7737321 142.321237,77.5497936 142.254185,76.8779778 C142.120081,75.6239217 141.941275,74.3698656 141.807171,73.0934157 C141.583664,71.2123315 141.337806,69.3088536 141.114299,67.4277694 C140.913143,65.7930177 140.711986,64.1806599 140.533181,62.5459082 C140.354375,60.9783381 140.153219,59.4331619 139.974413,57.8655917 C139.952062,57.6864409 139.974413,57.5296839 139.974413,57.2833514 C140.711986,57.193776 141.404858,57.1042006 142.075379,57.0146251 C143.885786,56.7906865 145.718544,56.5891418 147.528951,56.3652032 C148.020666,56.2980216 148.244173,56.0069015 148.199472,55.5366304 C147.998315,54.4841191 147.864211,53.38682 147.730107,52.3119148 Z M170.460772,13.3242068 C170.863084,12.1149384 171.265397,10.90567 171.645359,9.7187955 C171.846515,9.0693736 171.623008,8.59910257 170.997189,8.37516398 C170.237265,8.10643768 169.45499,7.86010523 168.695066,7.63616664 C168.024545,7.43462192 167.599882,7.68095436 167.398725,8.35277012 C167.197569,8.95740431 167.018764,9.56203849 166.817607,10.1666727 C165.186006,15.182897 163.554405,20.2215152 161.922803,25.2377396 C161.878102,25.3944966 161.8334,25.5736475 161.81105,25.6632229 C161.81105,26.2230694 161.989855,26.5141895 162.45922,26.6709466 C163.241495,26.9396729 164.023769,27.2083992 164.806044,27.4323377 C165.476565,27.6338825 165.878878,27.4099439 166.124735,26.760522 C166.169437,26.6261588 166.214138,26.4917957 166.25884,26.3574325 C167.644583,22.0130239 169.052677,17.6686153 170.460772,13.3242068 Z M50.1916399,45.4817879 C46.1461626,44.0709748 42.0783347,42.6377678 38.0552082,41.2045609 C36.870621,40.7790775 36.7812182,41.0925916 36.4683083,41.9435582 C35.060214,45.9296651 33.6744705,49.9157719 32.2663762,53.9242726 C31.1041396,57.2161698 29.9642538,60.5080671 28.8020173,63.7999643 C28.5338088,64.5389616 28.6455623,64.7405064 29.4054862,65.0092327 C30.2995143,65.3227467 31.1935425,65.6586546 32.0875706,65.9497747 C32.7580917,66.1737133 33.0263001,66.061744 33.2498071,65.3899283 C33.8085747,63.8223582 34.3449916,62.2547881 34.9037591,60.7096118 C35.3507732,59.4555557 35.7977872,58.2238935 36.2224506,56.9698374 C36.3118534,56.6787172 36.4683083,56.5443541 36.7588675,56.7011111 C36.8035689,56.723505 36.8482703,56.723505 36.9153224,56.7458988 C39.7091602,57.7312286 42.5253488,58.7165584 45.3191866,59.724282 C46.3920204,60.1049776 47.4648541,60.3737039 48.6270907,60.3513101 C50.8398102,60.3513101 52.6055158,59.4555557 53.9465579,57.7088347 C54.8182353,56.5667479 55.3770029,55.2679041 55.6675621,53.8794849 C56.1816282,51.3937666 55.5111071,49.2439561 53.6559988,47.4748413 C52.6725679,46.5342992 51.4879806,45.9296651 50.1916399,45.4817879 Z M50.9515638,53.1180937 C50.8174595,53.6331524 50.5939525,54.1482112 50.3257441,54.6184822 C49.8563793,55.447055 49.0964554,55.760569 48.1800766,55.5814182 C47.6883611,55.4918427 47.2189964,55.3574796 46.7496316,55.2007226 C43.9781445,54.2377866 41.2066573,53.2524569 38.4351702,52.2671271 C38.2787153,52.2223394 38.144611,52.1551578 37.9434547,52.0655823 C38.5469237,50.3412552 39.1503927,48.639322 39.7762123,46.8702071 C40.6031883,47.1613273 41.3407615,47.4076597 42.1006854,47.676386 C44.2910543,48.4601711 46.4814232,49.2215623 48.6717921,50.0053473 C49.1411568,50.1621043 49.5881709,50.3636491 49.9904835,50.6323754 C50.8398102,51.169828 51.2197722,52.1327639 50.9515638,53.1180937 Z M186.083913,41.4732872 C185.815705,40.7342898 185.636899,40.6223205 184.854624,40.8910468 C179.043442,42.8841003 173.232259,44.8771537 167.421076,46.892601 C167.152868,46.9821764 166.884659,47.0717518 166.616451,47.1837211 C166.191788,47.362872 166.057683,47.6315983 166.191788,48.0570816 C166.236489,48.1914448 166.28119,48.3258079 166.325892,48.4601711 C168.292754,54.2377866 170.281966,59.9930083 172.248828,65.7706239 C172.807596,67.3605878 173.344012,68.9729457 173.90278,70.5629096 C174.103936,71.1227561 174.372145,71.2571193 174.908562,71.1003622 C175.087367,71.0555745 175.243822,70.988393 175.400277,70.9212114 C176.227253,70.6300912 177.07658,70.3613649 177.903556,70.0478509 C178.417622,69.8687 178.551726,69.5999737 178.395271,69.0625211 C178.35057,68.928158 178.305868,68.7937948 178.261167,68.6594316 C177.322438,65.904987 176.361357,63.1505424 175.422628,60.4184916 C175.333225,60.1497653 175.266173,59.881039 175.17677,59.5899189 C175.981395,59.2987987 176.741319,59.0300724 177.501243,58.7613461 C179.535157,58.0671365 181.569071,57.3729269 183.602985,56.6787172 C184.251155,56.4547786 184.362909,56.2084462 184.161753,55.5590243 C183.848843,54.6408761 183.535933,53.7227279 183.223023,52.8045797 C182.954815,52.0655823 182.753658,51.953613 181.993734,52.2223394 C179.378702,53.1180937 176.76367,54.013848 174.148638,54.9096024 C173.612221,55.0887533 173.612221,55.0887533 173.433415,54.5736945 C173.008752,53.3196384 172.584089,52.0655823 172.159425,50.8115263 C172.114724,50.6547692 172.070022,50.5204061 172.025321,50.3412552 C172.181776,50.2740736 172.31588,50.2068921 172.449984,50.1621043 C174.282742,49.5350763 176.1155,48.9080483 177.948257,48.2586264 C180.786796,47.2732966 183.647686,46.3103606 186.486226,45.3250309 C187.156747,45.1010923 187.24615,44.8547598 187.044993,44.2053379 C186.709733,43.3095836 186.396823,42.3914354 186.083913,41.4732872 Z M217.15139,43.4887345 C215.475087,40.3983819 212.927107,39.1443259 209.462748,39.6369908 C208.009953,39.8385355 206.64656,40.2864127 205.350219,40.9358346 C203.696267,41.7868012 202.087016,42.7273433 200.433064,43.6230976 C199.851946,43.9366116 199.248477,44.2277318 198.622657,44.4516704 C198.265046,44.5860335 197.818032,44.6308212 197.43807,44.5636397 C196.342886,44.3620949 195.694715,43.1080389 195.985274,41.9659521 C196.208781,41.0478039 196.745198,40.2864127 197.393369,39.6369908 C199.807245,37.2632417 202.645784,35.9420041 206.065441,36.0987611 C206.512455,36.0987611 206.98182,36.0987611 207.428834,36.0987611 C208.032303,36.0987611 208.211109,35.9196102 208.278161,35.3373699 C208.367564,34.3296462 208.456967,33.3443165 208.56872,32.3365928 C208.613421,31.7991402 208.389914,31.50802 207.853498,31.4408385 C206.557157,31.2840814 205.260816,31.2840814 203.964475,31.4632323 C200.94713,31.8439279 198.197994,32.9188331 195.784118,34.7551296 C194.063114,36.0539734 192.65502,37.6439373 191.872745,39.7041723 C191.023418,41.9659521 190.978717,44.1829441 192.319759,46.3103606 C193.571398,48.3034141 195.426507,49.2887439 197.75098,49.3111377 C199.404932,49.3111377 200.94713,48.8184728 202.355225,47.9675062 C203.383357,47.362872 204.43384,46.7582378 205.461972,46.1759975 C206.624209,45.5041817 207.786445,44.832366 209.082786,44.4516704 C209.775658,44.2501256 210.46853,44.1381564 211.206103,44.2725195 C212.301287,44.4740642 213.575278,45.9744528 213.128263,47.3852659 C212.882406,48.1466571 212.502444,48.8184728 211.966027,49.3783193 C209.105137,52.4462779 205.663129,54.1929989 201.394144,53.9914542 C200.544818,53.9466665 199.717842,53.8123033 198.868515,53.700334 C198.3768,53.6331524 198.108591,53.7675156 197.996838,54.1706051 C197.683928,55.2231164 197.371018,56.2532339 197.080459,57.3057453 C196.946355,57.7760163 197.12516,58.0447426 197.594525,58.2014996 C199.874297,58.8733154 202.176419,59.097254 204.545594,58.6941645 C207.585289,58.1791058 210.267373,56.880262 212.725951,55.0887533 C214.312851,53.9242726 215.698594,52.5582472 216.726727,50.856314 C218.134821,48.4601711 218.514783,46.0192405 217.15139,43.4887345 Z M148.177121,2.19445898 C147.305444,2.03770196 146.433766,1.92573267 145.562089,1.79136952 C142.857654,1.38828006 140.175569,0.985190605 137.471134,0.582101148 C136.241846,0.402950278 135.012557,0.201405549 133.760918,0.0222546797 C133.045695,-0.0897146139 132.598681,0.223799408 132.509278,0.89561517 C132.196369,3.00063789 131.861108,5.10566061 131.548198,7.21068333 C131.145885,9.94273409 130.721222,12.6747849 130.318909,15.4068356 C130.162455,16.5041347 129.983649,17.6014338 129.849545,18.6987329 C129.782493,19.3705486 130.050701,19.6840626 130.721222,19.7960319 C131.481146,19.9303951 132.24107,20.0199705 133.023345,20.1543337 C133.760918,20.266303 134.185581,19.9751828 134.297335,19.2585793 C134.45379,18.2732495 134.587894,17.2655259 134.744349,16.2801961 C134.923154,15.0933216 135.10196,13.9064471 135.280766,12.7195726 C135.347818,12.2940893 135.392519,12.2716954 135.794832,12.3164831 C136.778263,12.4732401 137.739343,12.6076033 138.722774,12.7643603 C139.706205,12.9211173 140.667285,13.0778743 141.650716,13.2122375 C142.298886,13.3018129 142.72355,13.0554805 142.835303,12.4508463 C142.991758,11.5774858 143.125862,10.7041253 143.215265,9.8307648 C143.282317,9.22613061 142.969407,8.86782887 142.365938,8.75585958 C140.935493,8.53192099 139.505048,8.33037626 138.096954,8.10643768 C137.426433,7.99446838 136.755912,7.88249909 136.06304,7.7705298 C136.219495,6.80759387 136.353599,5.91183952 136.487703,4.99369131 C136.666509,4.99369131 136.778263,4.97129746 136.890016,4.99369131 C140.421427,5.53114392 143.952838,6.06859653 147.484249,6.60604914 C148.177121,6.71801844 148.624135,6.40450441 148.735889,5.71029479 C148.869993,4.92650974 148.981746,4.14272468 149.0935,3.35893963 C149.138201,2.70951773 148.869993,2.30642827 148.177121,2.19445898 Z M94.8930455,10.7265191 C94.8930455,10.3010358 94.9153962,9.87555252 94.8930455,9.4500692 C94.8706948,9.09176746 94.781292,8.71107186 94.7142399,8.35277012 C93.9096146,4.9489036 91.9427527,2.507973 88.7466022,1.0971599 C86.6232855,0.179011691 84.4105659,0.0222546797 82.1754956,0.492525713 C79.3146056,1.07476604 76.9901325,2.53036686 75.3585312,4.99369131 C73.9057356,7.14350175 73.4363708,9.53964463 73.793982,12.1149384 C74.2409961,15.2948663 75.7831946,17.8253724 78.5099803,19.5273056 C81.0356098,21.1172696 83.8070969,21.4531775 86.6903376,20.8261494 C91.6521936,19.7512442 95.0495004,15.4964111 94.8930455,10.7265191 Z M83.4941871,16.616104 C81.4602731,16.6608917 79.0016958,14.8469892 78.3311747,12.2045138 C77.6159522,9.36049376 79.0240465,6.47168599 81.7284815,5.35199305 C84.1647082,4.34426941 86.4668305,4.54581414 88.5007445,6.29253512 C91.2275302,8.64389029 91.093426,13.0330866 88.2325361,15.2276847 C87.0255981,16.1682268 85.6622052,16.5937101 83.4941871,16.616104 Z M122.0715,35.4269453 C122.026799,35.4269453 121.982097,35.4493392 121.937396,35.4493392 C121.669187,34.844705 121.378628,34.2400708 121.11042,33.6354366 C120.574003,32.4261682 120.037586,31.2168999 119.478819,30.0300254 C119.411767,29.8732684 119.255312,29.6493298 119.121207,29.6493298 C118.450686,29.604542 117.802516,29.6269359 117.109644,29.6269359 L117.109644,40.1072618 L118.964752,40.1072618 L118.964752,33.7921936 C119.009454,33.7921936 119.054155,33.7697998 119.098857,33.7697998 C119.367065,34.374434 119.657624,34.9790681 119.925833,35.5837023 C120.551652,36.9721216 121.177472,38.3381469 121.803292,39.7265662 C121.870344,39.8833232 121.982097,40.1072618 122.116202,40.1072618 C122.719671,40.1744434 123.32314,40.1744434 123.926608,40.1072618 L123.926608,29.6717236 L122.0715,29.6717236 L122.0715,35.4269453 Z M106.269553,55.2007226 C104.973212,54.5736945 103.587469,54.3945436 102.179375,54.3049682 C100.056058,54.1706051 97.9327411,54.0810296 95.8094243,53.9466665 C95.0942018,53.9018788 94.3789793,53.857091 93.6414062,53.8123033 C91.9651034,53.7227279 90.3111514,53.6107586 88.6348487,53.5211832 C87.9866783,53.4987893 87.785522,53.6779402 87.7408206,54.3497559 C87.7184699,54.7976331 87.7184699,55.2231164 87.6961192,55.6709936 C87.562015,57.9327733 87.4279108,60.1721592 87.2938065,62.4339389 C87.2044037,63.7775704 87.1373516,65.1435958 87.0702995,66.4872274 C86.9361953,68.5698562 86.8020911,70.6300912 86.6903376,72.7127201 C86.5785841,74.3922595 86.4891812,76.0941927 86.3997784,77.7737321 C86.355077,78.4903356 86.5562334,78.7590619 87.2491051,78.8038496 C88.2772375,78.8710312 89.2830191,78.9158189 90.3111514,78.9606067 C90.869919,78.9830005 91.093426,78.7814558 91.1381274,78.2216093 C91.2051795,77.0571287 91.2945824,75.892648 91.3392838,74.7281674 C91.4286866,73.1829911 91.4957387,71.6378149 91.5851415,70.0926386 C91.6074922,69.7343369 91.6521936,69.398429 91.696895,68.9953395 C92.0992077,69.0177334 92.4791696,69.0625211 92.8591316,69.084915 C94.9377469,69.1968843 96.9940116,69.3088536 99.0726269,69.4208228 C99.4078875,69.4432167 99.5866931,69.555186 99.6984466,69.8687 C99.8772522,70.3613649 100.100759,70.8540298 100.301916,71.3466947 C101.352399,73.8995946 102.402882,76.4748883 103.431014,79.0277882 C103.63217,79.542847 103.922729,79.8115733 104.526198,79.8115733 C105.375525,79.8115733 106.202501,79.9235426 107.051828,79.9683303 C107.409439,79.9907242 107.789401,80.013118 108.169363,79.9907242 C108.549325,79.9683303 108.795183,79.6772101 108.772832,79.3189084 C108.750481,79.1845452 108.683429,79.0501821 108.638728,78.9158189 C107.409439,75.9822234 106.18015,73.0262341 104.950862,70.0926386 C104.88381,69.9134877 104.816758,69.7343369 104.727355,69.5103983 C104.90616,69.4656106 104.973212,69.4208228 105.062615,69.398429 C107.320036,68.7937948 108.862235,67.4053756 109.711561,65.2331713 C110.247978,63.8671459 110.404433,62.4339389 110.270329,60.9783381 C110.002121,58.3358628 108.70578,56.3652032 106.269553,55.2007226 Z M102.604038,64.8748695 C101.419451,64.8972634 100.257214,64.7852941 99.0726269,64.7181125 C98.3574044,64.6733248 97.642182,64.6285371 96.9046088,64.5837494 C95.4071117,64.4941739 93.9096146,64.4269924 92.4344682,64.3374169 C92.2780133,64.3374169 92.1215584,64.2926292 91.8980513,64.2702353 C92.0098048,62.3667573 92.1215584,60.4856732 92.2333119,58.5598014 C92.7697287,58.5598014 93.2614442,58.5374075 93.7531597,58.5598014 C94.5801357,58.6045891 95.4071117,58.6717707 96.2340877,58.7389522 C98.2903523,58.8509215 100.346617,58.940497 102.402882,59.097254 C102.984,59.1420417 103.587469,59.2987987 104.146236,59.5003434 C104.995563,59.8138575 105.464928,60.4856732 105.554331,61.3814276 C105.688435,63.217724 104.90616,64.8076879 102.604038,64.8748695 Z M80.789752,52.6030349 C78.085317,52.0879762 75.4032326,51.5729174 72.6987976,51.0578587 C69.212088,50.3860429 65.7253783,49.7142272 62.2386687,49.0424114 C61.6799011,48.9304421 61.4116927,49.109593 61.2999392,49.6694395 C61.1211335,50.5875877 60.9423279,51.5057359 60.7635223,52.4238841 C59.578935,58.6493768 58.3943478,64.8748695 57.1874098,71.1227561 C57.0533056,71.7945719 56.9192014,72.4663876 56.8297986,73.1605973 C56.7627465,73.6308683 56.9192014,73.7876253 57.3885662,73.9219884 C57.5003197,73.9443823 57.6344239,73.9667762 57.7461774,74.0115639 C62.3057208,74.8849244 66.8652642,75.7582849 71.4248075,76.6316454 C73.2799159,76.9899471 75.1126735,77.3482488 76.9677818,77.6841567 C77.6383029,77.8185199 77.86181,77.639369 77.9959142,76.9899471 C78.1970705,76.0270112 78.3758761,75.0416814 78.5546817,74.0787455 C78.688786,73.4069297 78.5099803,73.1605973 77.86181,73.048628 C76.4537157,72.7799017 75.0679721,72.5111753 73.6598778,72.242449 C70.5978315,71.6602087 67.5357853,71.0779684 64.4960897,70.4957281 C63.7585165,70.3613649 63.0209433,70.2046079 62.216318,70.0478509 C62.5962799,68.0547975 62.9538912,66.1065318 63.3338531,64.1134783 C63.6020616,64.158266 63.8255686,64.1806599 64.0490756,64.2254476 C66.2170938,64.6285371 68.3627613,65.0540204 70.5307794,65.4571099 C71.1565991,65.5690791 71.4024568,65.3899283 71.5142104,64.7629002 C71.693016,63.7999643 71.8718216,62.8146345 72.0729779,61.8516986 C72.2070821,61.157489 72.0506272,60.9111565 71.3577554,60.7767934 C70.039064,60.5080671 68.6980218,60.2617346 67.3569796,60.0154022 C66.351198,59.8138575 65.3230657,59.6347066 64.2725826,59.410768 C64.2725826,59.2764048 64.2725826,59.2092233 64.2949333,59.1420417 C64.5631418,57.7536225 64.8089995,56.3652032 65.0772079,54.9991778 C65.1666108,54.5289068 65.2336629,54.4841191 65.7253783,54.5736945 C67.2452261,54.8648147 68.7650739,55.1559348 70.2849217,55.447055 C73.6151764,56.0964769 76.9454311,56.723505 80.2756859,57.3729269 C80.8791548,57.4848961 81.1250126,57.3057453 81.2367661,56.7011111 C81.4155717,55.8277506 81.5720266,54.9319963 81.7508322,54.0586358 C81.99669,52.9389428 81.9072872,52.8045797 80.789752,52.6030349 Z M121.557434,76.3181313 C121.490382,74.2355025 121.42333,72.1528736 121.333927,70.0926386 C121.266875,68.0547975 121.199823,65.9945625 121.132771,63.9567213 C121.065719,61.784517 120.998666,59.6123127 120.909264,57.4625023 C120.886913,56.5891418 120.864562,55.7381752 120.79751,54.8648147 C120.775159,54.4617252 120.574003,54.2825744 120.17169,54.3049682 C119.009454,54.3273621 117.847217,54.3721498 116.684981,54.4169375 C116.34972,54.4393314 116.148564,54.66327 116.103862,54.9991778 C116.081512,55.2007226 116.103862,55.3798734 116.103862,55.5814182 C116.170915,57.2609576 116.237967,58.9181031 116.305019,60.5976425 C116.372071,62.6578775 116.439123,64.7181125 116.506175,66.7783475 C116.573227,68.8609764 116.66263,70.9436052 116.707331,73.0038402 C116.752033,74.6833796 116.796734,76.362919 116.841436,78.0200646 C116.841436,78.3559725 116.886137,78.6918804 116.908488,79.0277882 C116.953189,79.4980593 117.154346,79.699604 117.62371,79.699604 C118.741245,79.6772101 119.83643,79.6324224 120.953965,79.5876347 C121.378628,79.5652408 121.579785,79.3413023 121.602135,78.9158189 C121.624486,78.5799111 121.602135,78.2440032 121.602135,77.9080953 C121.602135,77.9080953 121.602135,77.9080953 121.624486,77.9080953 C121.624486,77.3706427 121.579785,76.8555839 121.557434,76.3181313 Z M116.997891,11.4879103 C117.020241,10.8160946 117.020241,10.1442788 117.020241,9.47246306 C117.020241,8.8006473 116.684981,8.46473942 116.01446,8.44234556 C112.997115,8.39755784 109.957419,8.35277012 106.940074,8.33037626 C106.291904,8.33037626 105.911942,8.66628414 105.889591,9.31570605 C105.867241,10.0099157 105.867241,10.6817314 105.867241,11.375941 C105.867241,12.025363 106.202501,12.338877 106.850672,12.3612708 C108.839884,12.4060586 110.829097,12.4284524 113.15357,12.4732401 C113.868792,12.4732401 114.919275,12.4732401 115.992109,12.4732401 C116.66263,12.495634 116.97554,12.1597261 116.997891,11.4879103 Z"></path>
                    </g>
                </g>
            </g>
        </g>
    </g>
</svg>